<svg xmlns="http://www.w3.org/2000/svg" xmlns:xlink="http://www.w3.org/1999/xlink" version="1.1" x="0px" y="0px" viewBox="0 0 50 62.5" enable-background="new 0 0 50 50" xml:space="preserve"><g><polygon points="27.3,20.2 25,17.5 22.7,20.2 25,24.7  "/><path d="M7.1,49h5c8.7-7.1,5.7-20.9-5-23.8V49z"/><path d="M17.9,18.1c1.7,0,3.1-1.4,3.1-3.1c0-1.7-1.4-3.1-3.1-3.1c-1.7,0-3.1,1.4-3.1,3.1C14.8,16.7,16.2,18.1,17.9,18.1z"/><path d="M31.3,18.1c1.7,0,3.1-1.4,3.1-3.1c0-1.7-1.4-3.1-3.1-3.1c-1.7,0-3.1,1.4-3.1,3.1C28.2,16.7,29.6,18.1,31.3,18.1z"/><path d="M7.1,18.9v4.3c11.6,2.8,16,17.1,7.9,25.9h4.8c12.7,0,23-10.3,23-23v-7.2C42.9,9,34.9,1,25,1C15.1,1,7.1,9,7.1,18.9z    M16,8.9c2.7-0.7,6.1,0.3,9,2.4c2.9-2.1,6.3-3.1,9-2.4c4.2,1.1,5.1,6,2.1,10.8c-2.6,4.1-7.9,7.9-13.1,6.7c-3.4-0.8-7-3.3-9.1-6.7   C10.9,14.9,11.8,10,16,8.9z"/></g>
</svg>