<svg xmlns="http://www.w3.org/2000/svg" xmlns:xlink="http://www.w3.org/1999/xlink" version="1.1" x="0px" y="0px" viewBox="0 0 100 125" style="enable-background:new 0 0 100 100;" xml:space="preserve"><g><path d="M26.3,85.1V88h47.4v-2.9c0-15-5.3-21.6-10.4-28.1c-1.7-2.2-3.5-4.4-5.1-7c1.6-2.6,3.4-4.9,5.1-7.1   c5.1-6.4,10.3-13.1,10.3-28V12H26.3v2.9c0,14.9,5.3,21.6,10.3,28c1.7,2.2,3.5,4.5,5.1,7.1c-1.6,2.6-3.4,4.8-5.1,7   C31.6,63.5,26.3,70.1,26.3,85.1z M46.9,52.8c1.1-1.8,1.1-3.8,0-5.5c-1.8-3.1-3.8-5.5-5.7-8c-4.5-5.7-8.4-10.7-9-21.5h35.7   c-0.6,10.9-4.5,15.8-9,21.5c-1.9,2.4-3.9,5-5.8,8.1c-0.9,1.5-0.9,3.4-0.1,5.1l0.1,0.2c1.8,3,3.8,5.5,5.7,7.9   c4.5,5.7,8.5,10.7,9.1,21.6H32.2c0.6-10.9,4.5-15.9,9.1-21.6C43.1,58.3,45.1,55.8,46.9,52.8z"/><path d="M53.2,68.3C53.2,68.3,53.2,68.3,53.2,68.3c-1.7-2.2-2.7-4.9-2.7-7.6V45.9c0-2.7,0.9-5.3,2.5-7.4c0.6-0.8,1.2-1.6,1.8-2.3   c3.4-4.3,6-7.6,7.2-13.3H38c1.2,5.7,3.9,9,7.2,13.3c0.6,0.8,1.2,1.5,1.8,2.3c1.6,2.1,2.5,4.7,2.5,7.4v14.8c0,2.8-0.9,5.4-2.6,7.6   c0,0,0,0,0,0c-2.2,2.8-4,5-4.8,8.8h16C57.2,73.3,55.4,71.1,53.2,68.3z"/></g></svg>