<svg xmlns="http://www.w3.org/2000/svg" xmlns:xlink="http://www.w3.org/1999/xlink" version="1.1" x="0px" y="0px" viewBox="-180 272 250 312.5" style="enable-background:new -180 272 250 250;" xml:space="preserve"><path d="M-30.1,374.9C-30.2,374.9-30.2,374.9-30.1,374.9c-0.1,0-0.1-0.1-0.2-0.1c0,0,0,0-0.1,0s-0.1-0.1-0.2-0.1l0,0  c0-0.1-0.1-0.1-0.1-0.2l0,0c0-0.1-0.1-0.1-0.1-0.2l0,0c0-0.1,0-0.1-0.1-0.2c0,0,0,0,0-0.1v-0.1V374l0,0l0.1-10.8  c0-2.4,0.7-4.9,2-7.2c0.8-1.5,1.8-3.8,1.9-6.4c-1.6,1.3-4,2.7-7.4,2.8c-0.8,0-1.7,0-2.7-0.2l-0.9-0.2c-3.5-0.5-12.2-0.8-15.1,1.4  c-0.2,0.1-0.2,0.2-0.4,0.2c-1.1,0.5-2.4,0.5-3.4,0c-0.2-0.1-0.2-0.2-0.4-0.2c-2.9-2.1-11.6-1.8-15.1-1.4l-0.9,0.2  c-1.1,0.2-1.9,0.2-2.7,0.2c-3.3-0.2-5.8-1.4-7.4-2.8c0.2,2.6,1.1,4.9,1.9,6.4c1.3,2.4,2,4.8,2,7.2l0.1,10.8l0,0v0.1  c0,0.1,0,0.1,0,0.1s0,0,0,0.1c0,0.1,0,0.1-0.1,0.2l0,0c0,0.1-0.1,0.1-0.1,0.2l0,0c0,0.1-0.1,0.1-0.1,0.2l0,0c0,0-0.1,0.1-0.2,0.1  c0,0,0,0-0.1,0s-0.1,0.1-0.2,0.1l0,0c-7.8,3.1-9.5,11.1-5,23.8c3.6,10,9.4,18.2,15.1,21.5c-7.2-9.5-10.8-33.6-10.3-33.6  s3.3,28.4,21.3,43.2c0.2,0.2-4.3-2.3-5.6-3.6c-3.7,3.9-6.7,8.1-9.1,12.8c5.6,3.8,12,5.7,18.5,5.7c6.5-0.1,12.9-2,18.5-5.7  c-2.4-4.6-5.4-8.9-9.1-12.8c-1.4,1.3-5.9,3.8-5.6,3.6c18-14.8,20.7-43.2,21.3-43.2s-3,24.1-10.4,33.6c5.7-3.3,11.5-11.4,15.1-21.5  C-20.6,386-22.3,378-30.1,374.9z M-55,387.7c-11.3-0.1-20.4-8.9-20.4-19.8c0-0.6,0-1.2,0.1-1.8c0.5-4.6,4.2-8.4,9-8.7  c0.2,0,0.4,0,0.5,0c5.3,0,9.7,4,9.9,9.1c0.1,2.1-0.5,4-1.7,5.7c1.1,0.7,2.1,1.5,2.6,2.6c0.5-1.1,1.4-1.9,2.6-2.6  c-1.1-1.6-1.8-3.6-1.7-5.7c0.2-5.2,4.5-9.1,9.9-9.1c0.2,0,0.4,0,0.5,0c4.8,0.2,8.6,4,9,8.7c0.1,0.6,0.1,1.2,0.1,1.8  C-34.6,378.8-43.7,387.7-55,387.7z"/><ellipse cx="-47.4" cy="367.3" rx="3.2" ry="3.1"/><ellipse cx="-62.6" cy="367.3" rx="3.2" ry="3.1"/></svg>