<svg xmlns="http://www.w3.org/2000/svg" version="1.1" viewBox="-5.0 -10.0 110.0 135.0">
 <path d="m80.547 19.578c-5.0469 0-11.625-0.65625-16.156 7.7188-2.5 4.6406-5.625 6.1406-7.9062 6.5469v7.9375c0.60938-0.98438 1.4531-1.7969 2.4844-2.3438 0.96875-0.53125 2.0312-0.79688 3.1562-0.79688 2.9219 0 5.8438 1.8906 7.4062 4.8125 0.25 0.46875 0.46875 0.9375 0.64062 1.4219h1.6875c2.3438 0 4.3906-1.2969 5.4531-3.2031h-7.7188c-0.85938 0-1.5625-0.70312-1.5625-1.5625s0.70312-1.5625 1.5625-1.5625h8.6406c0.1875-0.10938 0.57812-0.375 1.0469-0.76562 0.73438-0.5625 1.6719-1.4219 2.3906-2.4375h-7.3906c-0.85938 0-1.5625-0.70312-1.5625-1.5625s0.70312-1.5625 1.5625-1.5625h8.6562c0.1875-0.125 0.57812-0.39062 1.0469-0.76562 0.73438-0.57812 1.6562-1.4219 2.375-2.4375h-7.3906c-0.85938 0-1.5625-0.70312-1.5625-1.5625s0.70312-1.5625 1.5625-1.5625h8.5312c1 0 1.9375-0.23438 2.7812-0.65625 2.0625-1.0156 3.4688-3.1406 3.4688-5.5938v-0.0625z"/>
 <path d="m41.047 39.438c1 0.54688 1.8438 1.3281 2.4688 2.3125v-7.9062c-2.2812-0.40625-5.4062-1.9062-7.9062-6.5469-4.5312-8.375-11.109-7.7188-16.156-7.7188h-13.203v0.0625c0 2.4531 1.4062 4.5781 3.4688 5.5938 0.84375 0.42188 1.7812 0.65625 2.7812 0.65625h8.5312c0.85938 0 1.5625 0.70312 1.5625 1.5625s-0.70312 1.5625-1.5625 1.5625h-7.3906c0.71875 1.0156 1.6406 1.8594 2.375 2.4375 0.48438 0.39062 0.89062 0.65625 1.0625 0.76562h8.6406c0.85938 0 1.5625 0.70312 1.5625 1.5625s-0.70312 1.5625-1.5625 1.5625h-7.3906c0.71875 1.0156 1.6562 1.875 2.3906 2.4375 0.48438 0.40625 0.89062 0.67188 1.0625 0.76562h8.625c0.85938 0 1.5625 0.70312 1.5625 1.5625s-0.70312 1.5625-1.5625 1.5625h-7.7188c1.0625 1.9062 3.1094 3.2031 5.4531 3.2031h1.6875c0.17188-0.48438 0.375-0.95312 0.625-1.4219 1.5938-2.9219 4.5-4.8125 7.4375-4.8125 1.125 0 2.1875 0.26562 3.1562 0.79688z"/>
 <path d="m56.484 70.781v4.9531c4.2344 6.4531 3.7031 14.578 3.7031 14.578s6.8438-11.828-0.10938-21.141c-1.1719 0.59375-2.375 1.125-3.5938 1.6094z"/>
 <path d="m43.516 61.828v-2.4531c-2.0938-1.2188-3.2031-2.5-3.5312-3.4219-0.76562-2.1719-0.92188-3.8125-0.8125-5.0156 0.625-0.5 1.1719-1.1719 1.5938-1.9531 1.4219-2.6406 0.875-5.6875-1.2031-6.7969-2.0781-1.125-4.9219 0.10938-6.3438 2.7344-0.67188 1.2656-0.92188 2.6094-0.73438 3.7656-0.73438 2.4219-0.82812 5.6094 0.625 9.7031 1.0312 2.9688 3.3125 5.1406 6.1094 6.8438 1.2344-1.25 2.6719-2.3906 4.2969-3.4062z"/>
 <path d="m47.859 32.641c-0.42188 0-0.82812-0.046875-1.2188-0.125v27.625c1.4375-0.6875 2.9688-1.3281 4.6406-1.875 0.79688-0.26562 1.4688-0.53125 2.0781-0.8125v-24.938c-0.39062 0.078125-0.79688 0.125-1.2188 0.125z"/>
 <path d="m46.641 76.723v10.742c0 1.4648 0.51562 2.8867 1.457 4.0078l1.9023 2.2734 1.9023-2.2734c0.94141-1.125 1.457-2.543 1.457-4.0078v-15.504c-0.14453 0.050781-0.28906 0.10547-0.4375 0.15625-2.8086 0.99609-4.8203 2.6719-6.2812 4.6055z"/>
 <path d="m66.781 44.93c-1.4219-2.6406-4.2578-3.8594-6.3398-2.7422-2.082 1.1172-2.625 4.1641-1.2031 6.8008 0.42188 0.78516 0.97266 1.4453 1.5977 1.9492 0.10937 1.207-0.058594 2.8516-0.82422 5.0156-0.50391 1.4219-2.8203 3.6602-7.7539 5.2734-24.605 8.0586-12.441 29.09-12.441 29.09s-1.0977-16.477 12.062-21.145c6.2031-2.1992 12.973-4.9648 15.016-10.785 1.4492-4.0938 1.3594-7.2812 0.625-9.6953 0.17969-1.1719-0.0625-2.5078-0.73828-3.7656z"/>
 <path d="m55.25 26.719 0.25-2.4219c-1.625 0.92188-3.5 1.4375-5.5 1.4375s-3.875-0.51562-5.5-1.4375l0.25 2.4219c0.17188 1.5938 1.5156 2.7969 3.1094 2.7969h4.2812c1.5938 0 2.9375-1.2031 3.1094-2.7969z"/>
 <path d="m58.18 14.43c0 4.5156-3.6641 8.1758-8.1797 8.1758s-8.1797-3.6602-8.1797-8.1758c0-4.5195 3.6641-8.1797 8.1797-8.1797s8.1797 3.6602 8.1797 8.1797"/>
</svg>