<svg xmlns="http://www.w3.org/2000/svg" version="1.1" viewBox="-5.0 -10.0 110.0 135.0">
 <path d="m42.875 41.887c-0.92188-2.7461-0.94922-5.7148-0.078125-8.4805 0.21875-0.73828 0.94141-1.207 1.7031-1.1055 0.76172 0.10156 1.3359 0.74219 1.3555 1.5117-0.97656 3.1836-0.61719 6.6289 1 9.543 2.0508 0.4375 4.168 0.4375 6.2188 0 1.4023-2.4609 1.8672-5.3438 1.3125-8.1211-0.16406-0.83594 0.37109-1.6523 1.2031-1.832 0.83203-0.18359 1.6562 0.33203 1.8594 1.1602 0.53125 2.4297 0.39844 4.9648-0.39062 7.3242 4.4414-2.5117 7.1719-7.2344 7.1367-12.34-0.15625-1.7344-0.14062-6.2188-2.6094-5.9844-0.73047 0.11719-1.2812 0.73047-1.3281 1.4688-0.15625 1.3906-0.375 1.3906-0.90625 1.7188 0.87109-4.5117-1.043-9.1055-4.8555-11.668-1.0469-0.77734-1.4922-2.1289-1.1133-3.375 0.375-1.2461 1.4961-2.1211 2.8008-2.1875 0.79297-0.042969 1.4297-0.67969 1.4727-1.4766 0.046875-0.79688-0.51562-1.5-1.3008-1.6289-4.0078-0.63672-8.0117 1.1445-10.223 4.543-2.2148 3.3984-2.2227 7.7773-0.027343 11.188 0.48047 0.76172 0.48047 1.7344 0 2.4961-0.52344 0.71094-1.3867 1.0781-2.2617 0.96484-0.87109-0.11328-1.6133-0.69141-1.9375-1.5117-0.33984-0.91797-0.32031-1.9336 0.046875-2.8398-0.015625-0.67188-0.44922-1.2578-1.0859-1.4688-0.63672-0.20703-1.3359 0.011719-1.7422 0.54688-6.0352 6.5625-3.2812 18.152 3.75 21.555z"/>
 <path d="m62.461 46.887h-24.992c-0.86328 0.003906-1.5586 0.69922-1.5625 1.5625v3.125c0.003906 2.5859 2.0977 4.6836 4.6875 4.6836h18.746-0.003906c2.5898 0 4.6875-2.0977 4.6875-4.6836v-3.125c0-0.86328-0.69922-1.5586-1.5625-1.5625z"/>
 <path d="m44.902 89.281c0.32031 2.5547 2.4922 4.4688 5.0625 4.4688 2.5742 0 4.7422-1.9141 5.0625-4.4688l3.7344-29.898h-17.59z"/>
</svg>